<svg width="18" height="18" viewBox="0 0 18 18" fill="none" xmlns="http://www.w3.org/2000/svg">
<g clip-path="url(#clip0_1_317)">
<path d="M18 9C18 4.029 13.971 0 9 0C4.029 0 0 4.029 0 9C0 13.4929 3.29062 17.2162 7.59375 17.8912V11.601H5.3085V9H7.59375V7.017C7.59375 4.76175 8.93662 3.51562 10.9935 3.51562C11.9779 3.51562 13.008 3.6915 13.008 3.6915V5.90625H11.8721C10.7546 5.90625 10.4062 6.60075 10.4062 7.3125V9H12.9022L12.5033 11.6017H10.4062V17.8909C14.7094 17.2162 18 13.4929 18 9Z" fill="#1877F2"/>
<path d="M12.5034 11.6017L12.9024 9H10.4064V7.3125C10.4064 6.60075 10.7544 5.90625 11.8726 5.90625H13.0078V3.6915C13.0078 3.6915 11.978 3.51562 10.9936 3.51562C8.93675 3.51562 7.59387 4.76175 7.59387 7.017V9H5.30862V11.6017H7.59387V17.8909C8.0525 17.9633 8.522 18 9.00013 18C9.47825 18 9.94775 17.9632 10.4064 17.8912V11.601H12.5034V11.6017Z" fill="white"/>
</g>
<defs>
<clipPath id="clip0_1_317">
<rect width="18" height="18" fill="white"/>
</clipPath>
</defs>
</svg>
