<svg width="36" height="36" viewBox="0 0 36 36" fill="none" xmlns="http://www.w3.org/2000/svg">
<path fill-rule="evenodd" clip-rule="evenodd" d="M18 3C26.2845 3 33 9.7155 33 18C33 26.2845 26.2845 33 18 33C9.7155 33 3 26.2845 3 18C3 9.7155 9.7155 3 18 3ZM18 6C14.8174 6 11.7652 7.26428 9.51472 9.51472C7.26428 11.7652 6 14.8174 6 18C6 21.1826 7.26428 24.2348 9.51472 26.4853C11.7652 28.7357 14.8174 30 18 30C21.1826 30 24.2348 28.7357 26.4853 26.4853C28.7357 24.2348 30 21.1826 30 18C30 14.8174 28.7357 11.7652 26.4853 9.51472C24.2348 7.26428 21.1826 6 18 6ZM15.756 10.704L24.756 16.704C24.9681 16.8275 25.1467 17.0012 25.276 17.2099C25.4053 17.4185 25.4815 17.6557 25.4978 17.9007C25.5141 18.1456 25.47 18.3908 25.3694 18.6147C25.2689 18.8386 25.1149 19.0345 24.921 19.185L15.756 25.296C15.528 25.429 15.269 25.4995 15.0051 25.5004C14.7412 25.5013 14.4817 25.4326 14.2528 25.3011C14.024 25.1696 13.8338 24.9801 13.7017 24.7517C13.5695 24.5232 13.4999 24.2639 13.5 24V12C13.4999 11.7361 13.5695 11.4768 13.7017 11.2483C13.8338 11.0199 14.024 10.8304 14.2528 10.6989C14.4817 10.5674 14.7412 10.4987 15.0051 10.4996C15.269 10.5005 15.528 10.571 15.756 10.704Z" fill="white"/>
</svg>
